# xmcd CD database file
#
# Track frame offsets:
#	150
#	13490
#	30962
#	49875
#	67037
#	85175
#	103525
#	126337
#	147900
#	166037
#
# Disc length: 2481 seconds
#
# Revision: 1
# Processed by: cddbd v1.5.2PL0 Copyright (c) Steve Scherf et al.
# Submitted via: CDex 1.70beta2
#
DISCID=8309af0a
DTITLE=前川清 - 抱きしめて ～ KIYOSHI SUPER COLLECTION BEST 10
DYEAR=1996
DGENRE=JPop
TTITLE0=そして神戸
TTITLE1=噂の女
TTITLE2=長崎は今日も雨だった
TTITLE3=恋唄
TTITLE4=東京砂漠
TTITLE5=雪列車
TTITLE6=花の時・愛の時
TTITLE7=涙
TTITLE8=男と女の破片
TTITLE9=抱きしめて
EXTD=YEAR: 1996
EXTT0=
EXTT1=
EXTT2=
EXTT3=
EXTT4=
EXTT5=
EXTT6=
EXTT7=
EXTT8=
EXTT9=
PLAYORDER=
